<svg width="1198" height="354" viewBox="0 0 1198 354" fill="none" xmlns="http://www.w3.org/2000/svg">
<mask id="mask0_40000144_1468" style="mask-type:alpha" maskUnits="userSpaceOnUse" x="0" y="8" width="155" height="311">
<path d="M74.2012 128.231H0V72.6909C24.5856 73.2833 44.8762 68.8401 60.8717 59.3613C79.8293 48.1052 90.0486 31.2211 91.5296 8.70898H154.179V318.399H74.2012V128.231Z" fill="#F7BD15"/>
</mask>
<g mask="url(#mask0_40000144_1468)">
<path d="M-101.531 102.643L127.009 -49.2341L193.264 50.4646L-35.2762 202.342L-101.531 102.643Z" fill="#4486EC"/>
<path d="M2.72852 242.873L231.269 90.9958L268.685 147.299L40.1448 299.176L2.72852 242.873Z" fill="#F7BD15"/>
<path d="M-35.3301 202.286L193.21 50.4089L225.69 99.2839L-2.85009 251.161L-35.3301 202.286Z" fill="#E24538"/>
<path d="M18.8594 313.143L274.574 143.207L326.253 220.973L70.5387 390.909L18.8594 313.143Z" fill="#36B157"/>
</g>
<path d="M354.03 0V29.5155H373.833V47.6056H354.03V96.3537C354.03 105.494 356.315 107.779 365.455 107.779C368.311 107.779 370.977 107.589 373.833 107.017V128.154C369.263 128.916 363.36 129.106 358.028 129.106C341.462 129.106 326.99 125.298 326.99 105.684V47.6056H310.613V29.5155H326.99V0H354.03Z" fill="black"/>
<path d="M212.738 95.9944H238.445C238.636 107.801 248.538 112.561 259.201 112.561C267.009 112.561 276.911 109.514 276.911 99.9933C276.911 91.8051 265.676 88.9488 246.253 84.7595C230.638 81.3319 215.023 75.8096 215.023 58.4812C215.023 33.3455 236.731 26.8711 257.868 26.8711C279.386 26.8711 299.19 34.1071 301.285 58.2908H275.578C274.816 47.8175 266.818 44.9612 257.107 44.9612C251.013 44.9612 242.063 46.1037 242.063 54.1015C242.063 63.813 257.297 65.146 272.721 68.764C288.526 72.382 303.951 78.0947 303.951 96.3752C303.951 122.273 281.481 130.651 259.011 130.651C236.16 130.651 213.881 122.082 212.738 95.9944Z" fill="black"/>
<path d="M1105.65 318.408V219.959H1131.36V233.67H1131.93C1138.79 222.625 1150.59 217.293 1162.02 217.293C1190.77 217.293 1198.01 233.479 1198.01 257.853V318.408H1170.97V262.804C1170.97 246.618 1166.21 238.621 1153.64 238.621C1138.98 238.621 1132.69 246.809 1132.69 266.803V318.408H1105.65Z" fill="black"/>
<path d="M986.203 269.279C986.203 237.859 1006.2 217.293 1037.05 217.293C1068.08 217.293 1088.08 237.859 1088.08 269.279C1088.08 300.508 1068.08 321.074 1037.05 321.074C1006.2 321.074 986.203 300.508 986.203 269.279ZM1013.24 269.279C1013.24 284.893 1018.77 300.698 1037.05 300.698C1055.52 300.698 1061.04 284.893 1061.04 269.279C1061.04 253.474 1055.52 237.669 1037.05 237.669C1018.77 237.669 1013.24 253.474 1013.24 269.279Z" fill="black"/>
<path d="M940.893 318.387V219.939H967.933V318.387H940.893ZM967.933 182.426V204.705H940.893V182.426H967.933Z" fill="black"/>
<path d="M833.098 286.417H858.805C858.995 298.223 868.897 302.983 879.561 302.983C887.368 302.983 897.27 299.937 897.27 290.416C897.27 282.227 886.035 279.371 866.612 275.182C850.997 271.754 835.383 266.232 835.383 248.904C835.383 223.768 857.091 217.293 878.228 217.293C899.745 217.293 919.549 224.53 921.644 248.713H895.937C895.175 238.24 887.178 235.384 877.466 235.384C871.373 235.384 862.423 236.526 862.423 244.524C862.423 254.235 877.656 255.568 893.081 259.186C908.886 262.804 924.31 268.517 924.31 286.798C924.31 312.695 901.84 321.074 879.37 321.074C856.52 321.074 834.24 312.505 833.098 286.417Z" fill="black"/>
<path d="M730.82 286.417H756.527C756.718 298.223 766.62 302.983 777.283 302.983C785.091 302.983 794.993 299.937 794.993 290.416C794.993 282.227 783.758 279.371 764.335 275.182C748.72 271.754 733.105 266.232 733.105 248.904C733.105 223.768 754.814 217.293 775.95 217.293C797.468 217.293 817.272 224.53 819.367 248.713H793.66C792.898 238.24 784.9 235.384 775.189 235.384C769.095 235.384 760.145 236.526 760.145 244.524C760.145 254.235 775.379 255.568 790.803 259.186C806.608 262.804 822.033 268.517 822.033 286.798C822.033 312.695 799.563 321.074 777.093 321.074C754.242 321.074 731.963 312.505 730.82 286.417Z" fill="black"/>
<path d="M719.544 275.753H648.517C649.278 292.891 657.657 300.698 672.7 300.698C683.554 300.698 692.314 294.034 694.027 287.94H717.83C710.213 311.172 694.027 321.074 671.748 321.074C640.709 321.074 621.477 299.746 621.477 269.279C621.477 239.763 641.852 217.293 671.748 217.293C705.262 217.293 721.448 245.476 719.544 275.753ZM648.517 258.615H692.504C690.029 244.905 684.126 237.669 670.986 237.669C653.848 237.669 648.897 250.998 648.517 258.615Z" fill="black"/>
<path d="M555.584 318.408V219.959H581.291V238.24H581.672C586.623 225.862 599.952 217.293 613.091 217.293C614.996 217.293 617.281 217.674 618.995 218.246V243.381C616.519 242.81 612.52 242.429 609.283 242.429C589.479 242.429 582.624 256.711 582.624 274.039V318.408H555.584Z" fill="black"/>
<path d="M439.174 353.065V219.959H464.881V232.527H465.262C471.736 222.054 482.4 217.293 494.587 217.293C525.435 217.293 539.336 242.239 539.336 270.231C539.336 296.509 524.864 321.074 496.11 321.074C484.304 321.074 473.069 315.932 466.595 306.221H466.214V353.065H439.174ZM488.874 300.698C506.583 300.698 512.296 285.465 512.296 269.469C512.296 253.855 506.012 237.669 488.684 237.669C470.974 237.669 465.262 253.474 465.262 269.469C465.262 285.465 471.355 300.698 488.874 300.698Z" fill="black"/>
<path d="M267.348 318.408V219.959H292.864V233.289H293.245C300.291 223.197 310.574 217.293 323.332 217.293C335.709 217.293 346.754 221.864 352.086 233.67C357.798 225.101 368.081 217.293 381.791 217.293C402.738 217.293 417.781 227.005 417.781 252.522V318.408H390.741V262.614C390.741 249.475 389.599 238.621 374.175 238.621C358.941 238.621 356.084 251.189 356.084 263.566V318.408H329.044V263.185C329.044 251.76 329.806 238.621 312.668 238.621C307.336 238.621 294.388 242.048 294.388 261.281V318.408H267.348Z" fill="black"/>
<path d="M218.254 318.387V219.939H245.294V318.387H218.254ZM245.294 182.426V204.705H218.254V182.426H245.294Z" fill="black"/>
</svg>
