<svg width="1280" height="12" viewBox="0 0 1280 12" fill="none" xmlns="http://www.w3.org/2000/svg">
<mask id="mask0_40000148_1366" style="mask-type:alpha" maskUnits="userSpaceOnUse" x="0" y="0" width="1280" height="12">
<rect width="1280" height="12" rx="6" fill="#D9D9D9"/>
</mask>
<g mask="url(#mask0_40000148_1366)">
<path d="M281.918 13.5986L410.417 -99.3214L508.938 -71.293L380.439 41.627L281.918 13.5986Z" fill="#4486EC"/>
<path d="M429.852 50.6631L558.351 -62.2569L613.989 -46.4284L485.489 66.4916L429.852 50.6631Z" fill="#F7BD15"/>
<path d="M380.369 41.6152L508.868 -71.3048L557.166 -57.5645L428.667 55.3555L380.369 41.6152Z" fill="#E24538"/>
<path d="M473.445 76.9331L617.224 -49.4135L694.07 -27.5512L550.292 98.7954L473.445 76.9331Z" fill="#36B157"/>
<path d="M-71.4453 17.9893L57.054 -94.9307L155.575 -66.9024L27.0754 46.0176L-71.4453 17.9893Z" fill="#4486EC"/>
<path d="M76.4883 55.0532L204.988 -57.8668L260.625 -42.0383L132.126 70.8817L76.4883 55.0532Z" fill="#F7BD15"/>
<path d="M27.0059 46.0059L155.505 -66.9141L203.803 -53.1739L75.3033 59.7461L27.0059 46.0059Z" fill="#E24538"/>
<path d="M120.082 81.3232L263.86 -45.0233L340.707 -23.1611L196.929 103.186L120.082 81.3232Z" fill="#36B157"/>
<path d="M954.393 15.7837L1082.89 -97.1363L1181.41 -69.108L1052.91 43.812L954.393 15.7837Z" fill="#4486EC"/>
<path d="M1102.33 52.8477L1230.83 -60.0723L1286.46 -44.2439L1157.96 68.6761L1102.33 52.8477Z" fill="#F7BD15"/>
<path d="M1052.84 43.7998L1181.34 -69.1202L1229.64 -55.38L1101.14 57.54L1052.84 43.7998Z" fill="#E24538"/>
<path d="M1145.92 79.1182L1289.7 -47.2284L1366.54 -25.3661L1222.76 100.98L1145.92 79.1182Z" fill="#36B157"/>
<path d="M601.027 20.1738L729.527 -92.7462L828.047 -64.7178L699.548 48.2022L601.027 20.1738Z" fill="#4486EC"/>
<path d="M748.961 57.2378L877.46 -55.6822L933.098 -39.8537L804.599 73.0663L748.961 57.2378Z" fill="#F7BD15"/>
<path d="M699.479 48.1899L827.978 -64.7301L876.275 -50.9898L747.776 61.9302L699.479 48.1899Z" fill="#E24538"/>
<path d="M792.555 83.5083L936.333 -42.8383L1013.18 -20.976L869.401 105.371L792.555 83.5083Z" fill="#36B157"/>
</g>
</svg>
